
        <svg xmlns="http://www.w3.org/2000/svg" width="145" height="28">
            <rect width="145" height="28" x="0" y="0" fill="#d5d5d5"/>
            <svg width="16" height="16" x="10" y="5">
                <svg fill="#007ACD" role="img" viewBox="0 0 24 24" xmlns="http://www.w3.org/2000/svg"><title>Tailwind CSS</title><path d="M12.001,4.8c-3.2,0-5.2,1.6-6,4.8c1.2-1.6,2.6-2.2,4.2-1.8c0.913,0.228,1.565,0.89,2.288,1.624 C13.666,10.618,15.027,12,18.001,12c3.2,0,5.2-1.6,6-4.8c-1.2,1.6-2.6,2.2-4.2,1.8c-0.913-0.228-1.565-0.89-2.288-1.624 C16.337,6.182,14.976,4.8,12.001,4.8z M6.001,12c-3.2,0-5.2,1.6-6,4.8c1.2-1.6,2.6-2.2,4.2-1.8c0.913,0.228,1.565,0.89,2.288,1.624 c1.177,1.194,2.538,2.576,5.512,2.576c3.2,0,5.2-1.6,6-4.8c-1.2,1.6-2.6,2.2-4.2,1.8c-0.913-0.228-1.565-0.89-2.288-1.624 C10.337,13.382,8.976,12,6.001,12z"/></svg>
            </svg>
            <text x="36" y="18" font-family="monospace" font-size="16" font-weight="bold" fill="white">TAILWINDCSS</text>
        </svg>
        